<svg width="1280" height="28" viewBox="0 0 1280 28" fill="none" xmlns="http://www.w3.org/2000/svg">
<path d="M64 8.5C42.6667 19.8333 21.3333 19.8333 0 8.5V28H1280V8.5C1258.67 -2.83333 1237.33 -2.83333 1216 8.5C1194.67 19.8333 1173.33 19.8333 1152 8.5C1130.67 -2.83333 1109.33 -2.83333 1088 8.5C1066.67 19.8333 1045.33 19.8333 1024 8.5C1002.67 -2.83333 981.333 -2.83333 960 8.5C938.667 19.8333 917.333 19.8333 896 8.5C874.667 -2.83333 853.333 -2.83333 832 8.5C810.667 19.8333 789.333 19.8333 768 8.5C746.667 -2.83333 725.333 -2.83333 704 8.5C682.667 19.8333 661.333 19.8333 640 8.5C618.667 -2.83333 597.333 -2.83333 576 8.5C554.667 19.8333 533.333 19.8333 512 8.5C490.667 -2.83333 469.333 -2.83333 448 8.5C426.667 19.8333 405.333 19.8333 384 8.5C362.667 -2.83333 341.333 -2.83333 320 8.5C298.667 19.8333 277.333 19.8333 256 8.5C234.667 -2.83333 213.333 -2.83333 192 8.5C170.667 19.8333 149.333 19.8333 128 8.5C106.667 -2.83333 85.3333 -2.83333 64 8.5Z" fill="#2C97BE"/>
</svg>
