<svg width="1266" height="49" viewBox="0 0 1266 49" fill="none" xmlns="http://www.w3.org/2000/svg">
<path d="M1 24.5C22.0667 13.1667 43.1333 13.1667 64.2 24.5C85.2667 35.8333 106.333 35.8333 127.4 24.5C148.467 13.1667 169.533 13.1667 190.6 24.5C211.667 35.8333 232.733 35.8333 253.8 24.5C274.867 13.1667 295.933 13.1667 317 24.5C338.067 35.8333 359.133 35.8333 380.2 24.5C401.267 13.1667 422.333 13.1667 443.4 24.5C464.467 35.8333 485.533 35.8333 506.6 24.5C527.667 13.1667 548.733 13.1667 569.8 24.5C590.867 35.8333 611.933 35.8333 633 24.5C654.067 13.1667 675.133 13.1667 696.2 24.5C717.267 35.8333 738.333 35.8333 759.4 24.5C780.467 13.1667 801.533 13.1667 822.6 24.5C843.667 35.8333 864.733 35.8333 885.8 24.5C906.867 13.1667 927.933 13.1667 949 24.5C970.067 35.8333 991.133 35.8333 1012.2 24.5C1033.27 13.1667 1054.33 13.1667 1075.4 24.5C1096.47 35.8333 1117.53 35.8333 1138.6 24.5C1159.67 13.1667 1180.73 13.1667 1201.8 24.5C1222.87 35.8333 1243.93 35.8333 1265 24.5" stroke="url(#paint0_linear_27_913)" stroke-width="4"/>
<defs>
<linearGradient id="paint0_linear_27_913" x1="1265" y1="24.5" x2="1" y2="24.5" gradientUnits="userSpaceOnUse">
<stop stop-color="#48C6C4"/>
<stop offset="0.504808" stop-color="#A4E8FB"/>
<stop offset="1" stop-color="#EC6DBF"/>
</linearGradient>
</defs>
</svg>
