<svg width="33" height="34" viewBox="0 0 33 34" fill="none" xmlns="http://www.w3.org/2000/svg">
<path d="M9.66639 0.119138C7.91079 0.204478 6.7119 0.493138 5.66382 0.917458C4.57911 1.353 3.65973 1.93746 2.74497 2.88334C1.83021 3.82922 1.2669 4.77714 0.847137 5.89642C0.440907 6.97864 0.165687 8.21488 0.0881368 10.0247C0.0105868 11.8345 -0.00657324 12.4163 0.00200675 17.0328C0.0105868 21.6493 0.0303868 22.228 0.115527 24.0415C0.199347 25.85 0.478527 27.0849 0.890367 28.1651C1.31376 29.2826 1.88037 30.2295 2.79876 31.1724C3.71715 32.1152 4.63653 32.6942 5.72553 33.1274C6.77493 33.5452 7.97514 33.8301 9.7314 33.9094C11.4877 33.9886 12.0529 34.0069 16.5324 33.9981C21.0118 33.9893 21.5758 33.9689 23.3356 33.8828C25.0955 33.7968 26.2878 33.5071 27.3366 33.0849C28.4213 32.6476 29.341 32.0649 30.2554 31.1183C31.1698 30.1717 31.7328 29.2231 32.1523 28.1032C32.5588 27.022 32.835 25.7854 32.9113 23.9773C32.9881 22.1627 33.0063 21.5833 32.9977 16.9675C32.9891 12.3517 32.969 11.773 32.8855 9.9601C32.802 8.14722 32.5225 6.91608 32.111 5.83522C31.687 4.71764 31.121 3.77142 30.2029 2.82792C29.2849 1.88442 28.3635 1.30472 27.2768 0.873598C26.2268 0.455058 25.0272 0.169798 23.271 0.0915981C21.5147 0.0133981 20.9494 -0.00666192 16.4683 0.00217808C11.9873 0.0110181 11.4263 0.0307381 9.66639 0.119138ZM9.85911 30.8511C8.25036 30.779 7.37685 30.5036 6.79473 30.2731C6.02385 29.9671 5.47473 29.5971 4.89459 29.0052C4.31445 28.4133 3.95805 27.8455 3.65709 27.0529C3.43104 26.4532 3.15879 25.5542 3.08355 23.8967C3.00171 22.1052 2.98455 21.5674 2.97498 17.0287C2.96541 12.49 2.98224 11.9528 3.05847 10.1607C3.12711 8.50456 3.39606 7.60356 3.61947 7.00414C3.91647 6.20888 4.27419 5.64414 4.85004 5.04676C5.42589 4.44938 5.97534 4.0815 6.74523 3.77142C7.32669 3.5375 8.19921 3.25938 9.8073 3.1805C11.5474 3.0955 12.0688 3.0785 16.4733 3.06864C20.8778 3.05878 21.4005 3.07578 23.1413 3.15466C24.7487 3.22674 25.6235 3.50112 26.2047 3.73266C26.9759 4.03866 27.5247 4.4062 28.1045 5.00052C28.6843 5.59484 29.0417 6.1589 29.3426 6.95382C29.57 7.5512 29.8399 8.44982 29.9158 10.1077C29.9987 11.9005 30.0175 12.438 30.0254 16.9757C30.0333 21.5133 30.0178 22.0522 29.9416 23.8437C29.8713 25.5012 29.6047 26.4015 29.3806 27.0019C29.0836 27.7958 28.7255 28.3619 28.1494 28.959C27.5732 29.556 27.0244 29.9239 26.2542 30.234C25.6734 30.4675 24.7999 30.7463 23.1931 30.8252C21.453 30.9095 20.9316 30.9272 16.5254 30.9371C12.1193 30.9469 11.5995 30.9286 9.85944 30.8511M23.3102 7.91432C23.3109 8.31782 23.4277 8.71206 23.6458 9.04718C23.8639 9.38229 24.1736 9.64323 24.5357 9.79699C24.8978 9.95075 25.296 9.99043 25.68 9.911C26.064 9.83157 26.4164 9.63661 26.6929 9.35077C26.9693 9.06492 27.1572 8.70104 27.2329 8.30515C27.3086 7.90925 27.2686 7.49912 27.1181 7.12663C26.9675 6.75414 26.7131 6.43602 26.387 6.2125C26.061 5.98898 25.6779 5.87011 25.2863 5.87092C24.7613 5.872 24.2582 6.08787 23.8876 6.47106C23.517 6.85426 23.3094 7.37339 23.3102 7.91432ZM8.02794 17.0171C8.03718 21.8383 11.8375 25.7378 16.5159 25.7286C21.1943 25.7194 24.9817 21.8043 24.9728 16.9831C24.9639 12.1619 21.1626 8.26146 16.4835 8.27098C11.8045 8.2805 8.01903 12.1966 8.02794 17.0171ZM10.9999 17.011C10.9978 15.8902 11.3182 14.794 11.9208 13.8608C12.5234 12.9277 13.381 12.1996 14.3852 11.7687C15.3893 11.3377 16.495 11.2233 17.5624 11.4397C18.6297 11.6562 19.6107 12.1939 20.3815 12.9849C21.1522 13.7758 21.678 14.7845 21.8923 15.8833C22.1066 16.9821 21.9999 18.1217 21.5856 19.158C21.1713 20.1943 20.4681 21.0808 19.5648 21.7053C18.6615 22.3298 17.5987 22.6644 16.5109 22.6666C15.7886 22.6681 15.0731 22.5231 14.4052 22.2397C13.7373 21.9563 13.1301 21.5401 12.6184 21.015C12.1066 20.4898 11.7003 19.8659 11.4226 19.1789C11.1449 18.4919 11.0013 17.7552 10.9999 17.011Z" fill="white"/>
</svg>
